<svg id="wave" style="transform:rotate(180deg); transition: 0.3s" viewBox="0 0 1440 140" version="1.1" xmlns="http://www.w3.org/2000/svg"><defs><linearGradient id="sw-gradient-0" x1="0" x2="0" y1="1" y2="0"><stop stop-color="rgba(134, 202, 222, 1)" offset="0%"></stop><stop stop-color="rgba(134, 202, 222, 1)" offset="100%"></stop></linearGradient></defs><path style="transform:translate(0, 0px); opacity:1" fill="url(#sw-gradient-0)" d="M0,0L40,9.3C80,19,160,37,240,42C320,47,400,37,480,30.3C560,23,640,19,720,35C800,51,880,89,960,88.7C1040,89,1120,51,1200,35C1280,19,1360,23,1440,25.7C1520,28,1600,28,1680,28C1760,28,1840,28,1920,39.7C2000,51,2080,75,2160,84C2240,93,2320,89,2400,86.3C2480,84,2560,84,2640,91C2720,98,2800,112,2880,109.7C2960,107,3040,89,3120,74.7C3200,61,3280,51,3360,42C3440,33,3520,23,3600,37.3C3680,51,3760,89,3840,100.3C3920,112,4000,98,4080,79.3C4160,61,4240,37,4320,39.7C4400,42,4480,70,4560,72.3C4640,75,4720,51,4800,56C4880,61,4960,93,5040,102.7C5120,112,5200,98,5280,81.7C5360,65,5440,47,5520,46.7C5600,47,5680,65,5720,74.7L5760,84L5760,140L5720,140C5680,140,5600,140,5520,140C5440,140,5360,140,5280,140C5200,140,5120,140,5040,140C4960,140,4880,140,4800,140C4720,140,4640,140,4560,140C4480,140,4400,140,4320,140C4240,140,4160,140,4080,140C4000,140,3920,140,3840,140C3760,140,3680,140,3600,140C3520,140,3440,140,3360,140C3280,140,3200,140,3120,140C3040,140,2960,140,2880,140C2800,140,2720,140,2640,140C2560,140,2480,140,2400,140C2320,140,2240,140,2160,140C2080,140,2000,140,1920,140C1840,140,1760,140,1680,140C1600,140,1520,140,1440,140C1360,140,1280,140,1200,140C1120,140,1040,140,960,140C880,140,800,140,720,140C640,140,560,140,480,140C400,140,320,140,240,140C160,140,80,140,40,140L0,140Z"></path><defs><linearGradient id="sw-gradient-1" x1="0" x2="0" y1="1" y2="0"><stop stop-color="rgba(87, 169, 207, 1)" offset="0%"></stop><stop stop-color="rgba(87, 169, 207, 1)" offset="100%"></stop></linearGradient></defs><path style="transform:translate(0, 50px); opacity:0.9" fill="url(#sw-gradient-1)" d="M0,42L40,44.3C80,47,160,51,240,63C320,75,400,93,480,84C560,75,640,37,720,18.7C800,0,880,0,960,16.3C1040,33,1120,65,1200,72.3C1280,79,1360,61,1440,44.3C1520,28,1600,14,1680,23.3C1760,33,1840,65,1920,86.3C2000,107,2080,117,2160,102.7C2240,89,2320,51,2400,30.3C2480,9,2560,5,2640,2.3C2720,0,2800,0,2880,14C2960,28,3040,56,3120,63C3200,70,3280,56,3360,42C3440,28,3520,14,3600,23.3C3680,33,3760,65,3840,86.3C3920,107,4000,117,4080,109.7C4160,103,4240,79,4320,72.3C4400,65,4480,75,4560,74.7C4640,75,4720,65,4800,65.3C4880,65,4960,75,5040,70C5120,65,5200,47,5280,49C5360,51,5440,75,5520,70C5600,65,5680,33,5720,16.3L5760,0L5760,140L5720,140C5680,140,5600,140,5520,140C5440,140,5360,140,5280,140C5200,140,5120,140,5040,140C4960,140,4880,140,4800,140C4720,140,4640,140,4560,140C4480,140,4400,140,4320,140C4240,140,4160,140,4080,140C4000,140,3920,140,3840,140C3760,140,3680,140,3600,140C3520,140,3440,140,3360,140C3280,140,3200,140,3120,140C3040,140,2960,140,2880,140C2800,140,2720,140,2640,140C2560,140,2480,140,2400,140C2320,140,2240,140,2160,140C2080,140,2000,140,1920,140C1840,140,1760,140,1680,140C1600,140,1520,140,1440,140C1360,140,1280,140,1200,140C1120,140,1040,140,960,140C880,140,800,140,720,140C640,140,560,140,480,140C400,140,320,140,240,140C160,140,80,140,40,140L0,140Z"></path></svg>