<svg width="55" height="55" viewBox="0 0 55 55" fill="none" xmlns="http://www.w3.org/2000/svg">
<path d="M36.0938 29.7917C36.0938 28.8424 35.3242 28.0729 34.375 28.0729H20.625C19.6758 28.0729 18.9063 28.8424 18.9063 29.7917C18.9063 30.7409 19.6758 31.5104 20.625 31.5104H34.375C35.3242 31.5104 36.0938 30.7409 36.0938 29.7917Z" fill="#1CA4F1"/>
<path d="M36.0938 38.9583C36.0938 38.0091 35.3242 37.2396 34.375 37.2396H20.625C19.6758 37.2396 18.9063 38.0091 18.9063 38.9583C18.9063 39.9076 19.6758 40.6771 20.625 40.6771H34.375C35.3242 40.6771 36.0938 39.9076 36.0938 38.9583Z" fill="#1CA4F1"/>
<path fill-rule="evenodd" clip-rule="evenodd" d="M16.0417 5.15625C12.5611 5.15625 9.73959 7.97779 9.73959 11.4583V43.5417C9.73959 47.0222 12.5611 49.8438 16.0417 49.8438H38.9583C42.4389 49.8438 45.2604 47.0222 45.2604 43.5417V18.2592C45.2604 17.3866 44.9758 16.5378 44.4498 15.8416L37.5799 6.74905C36.8219 5.74589 35.6374 5.15625 34.3801 5.15625H16.0417ZM13.1771 11.4583C13.1771 9.87627 14.4596 8.59375 16.0417 8.59375H32.6562V18.6703C32.6562 19.6196 33.4258 20.3891 34.375 20.3891H41.8229V43.5417C41.8229 45.1237 40.5404 46.4062 38.9583 46.4062H16.0417C14.4596 46.4062 13.1771 45.1237 13.1771 43.5417V11.4583Z" fill="#1CA4F1"/>
</svg>
