<svg width="54" height="54" viewBox="0 0 54 54" fill="none" xmlns="http://www.w3.org/2000/svg">
<path fill-rule="evenodd" clip-rule="evenodd" d="M27 26.2113C25.4467 26.2113 24.1875 27.4705 24.1875 29.0238C24.1875 30.5771 25.4467 31.8363 27 31.8363C28.5533 31.8363 29.8125 30.5771 29.8125 29.0238C29.8125 27.4705 28.5533 26.2113 27 26.2113ZM20.8125 29.0238C20.8125 25.6066 23.5827 22.8363 27 22.8363C30.4173 22.8363 33.1875 25.6066 33.1875 29.0238C33.1875 32.4411 30.4173 35.2113 27 35.2113C23.5827 35.2113 20.8125 32.4411 20.8125 29.0238Z" fill="#FFCF56"/>
<path fill-rule="evenodd" clip-rule="evenodd" d="M27 17.2113C24.6637 17.2113 22.3799 17.9041 20.4373 19.2021C18.4948 20.5001 16.9807 22.3449 16.0867 24.5034C15.1926 26.6618 14.9587 29.0369 15.4145 31.3283C15.8703 33.6197 16.9953 35.7245 18.6473 37.3765C19.3063 38.0355 19.3063 39.104 18.6473 39.763C17.9883 40.422 16.9198 40.422 16.2608 39.763C14.1368 37.639 12.6903 34.9328 12.1043 31.9868C11.5183 29.0407 11.8191 25.987 12.9686 23.2118C14.1181 20.4367 16.0647 18.0647 18.5623 16.3959C21.0599 14.7271 23.9962 13.8363 27 13.8363C30.0038 13.8363 32.9402 14.7271 35.4377 16.3959C37.9353 18.0647 39.8819 20.4367 41.0314 23.2118C42.1809 25.987 42.4817 29.0407 41.8957 31.9868C41.3097 34.9328 39.8632 37.639 37.7392 39.763C37.0802 40.422 36.0117 40.422 35.3527 39.763C34.6937 39.104 34.6937 38.0355 35.3527 37.3765C37.0047 35.7245 38.1297 33.6197 38.5855 31.3283C39.0413 29.0369 38.8074 26.6618 37.9133 24.5034C37.0193 22.3449 35.5052 20.5001 33.5627 19.2021C31.6201 17.9041 29.3363 17.2113 27 17.2113Z" fill="#FFCF56"/>
<path fill-rule="evenodd" clip-rule="evenodd" d="M27.0002 8.4375C22.9286 8.4375 18.9484 9.64487 15.563 11.9069C12.1776 14.169 9.539 17.3841 7.98087 21.1458C6.42274 24.9075 6.01506 29.0467 6.80939 33.04C7.60372 37.0334 9.56438 40.7015 12.4434 43.5806C13.1024 44.2396 13.1024 45.3081 12.4434 45.9671C11.7844 46.6261 10.716 46.6261 10.0569 45.9671C6.70589 42.616 4.42379 38.3465 3.49924 33.6985C2.57469 29.0504 3.0492 24.2326 4.86278 19.8542C6.67635 15.4759 9.74754 11.7336 13.688 9.10072C17.6284 6.46781 22.2611 5.0625 27.0002 5.0625C31.7393 5.0625 36.372 6.46781 40.3124 9.10072C44.2528 11.7336 47.324 15.4759 49.1376 19.8542C50.9511 24.2326 51.4257 29.0504 50.5011 33.6985C49.5766 38.3465 47.2945 42.616 43.9434 45.9671C43.2844 46.6261 42.2159 46.6261 41.5569 45.9671C40.8979 45.3081 40.8979 44.2396 41.5569 43.5806C44.436 40.7015 46.3966 37.0334 47.191 33.04C47.9853 29.0467 47.5776 24.9075 46.0195 21.1458C44.4613 17.3841 41.8227 14.169 38.4373 11.9069C35.0519 9.64487 31.0718 8.4375 27.0002 8.4375Z" fill="#FFCF56"/>
</svg>
